<svg width="375" height="567" viewBox="0 0 375 567" fill="none" xmlns="http://www.w3.org/2000/svg">
<g clip-path="url(#clip0_260_76)">
<path d="M473.852 -27.5869H-98.8665V651.469H473.852V-27.5869Z" fill="white"/>
<path d="M473.852 -27.5869H-98.8665V651.469H473.852V-27.5869Z" fill="#3F8485"/>
<path d="M473.852 -27.5869H-98.8665V651.469H473.852V-27.5869Z" fill="white"/>
<path d="M473.852 -27.5869H-98.8665V651.469H473.852V-27.5869Z" fill="#3F8485"/>
<path d="M176.005 340.887C176.005 350.083 169.562 357.551 161.622 357.551C153.683 357.551 147.235 350.083 147.235 340.887H141.1C141.1 354.015 150.287 364.654 161.622 364.654C172.957 364.654 182.11 354.015 182.11 340.887H176.005Z" fill="#ED8F79"/>
<path d="M107.903 334.484C107.634 334.484 107.411 334.378 107.227 334.154C107.038 333.936 106.948 333.653 106.948 333.305V302.653C106.948 302.311 107.038 302.028 107.227 301.804C107.411 301.586 107.634 301.474 107.903 301.474H118.482C121.793 301.474 124.408 302.382 126.317 304.186C128.226 305.995 129.181 308.595 129.181 311.99C129.181 314.289 128.714 316.205 127.789 317.743C126.859 319.287 125.611 320.431 124.05 321.186L129.698 332.975C129.778 333.163 129.817 333.34 129.817 333.493C129.817 333.747 129.728 333.977 129.559 334.177C129.385 334.383 129.191 334.484 128.982 334.484H124.528C124.05 334.484 123.692 334.336 123.454 334.036C123.215 333.741 123.041 333.464 122.937 333.21L118.085 322.412H113.272V333.305C113.272 333.653 113.178 333.936 112.994 334.154C112.805 334.378 112.566 334.484 112.278 334.484H107.903ZM113.272 316.423H118.403C119.835 316.423 120.898 316.034 121.604 315.244C122.305 314.46 122.658 313.357 122.658 311.943C122.658 310.528 122.31 309.414 121.624 308.595C120.933 307.781 119.859 307.369 118.403 307.369H113.272V316.423Z" fill="white"/>
<path d="M147.434 334.955C145.232 334.955 143.388 334.519 141.906 333.658C140.42 332.797 139.286 331.559 138.506 329.956C137.72 328.353 137.293 326.484 137.213 324.344C137.183 323.72 137.173 323.001 137.173 322.199C137.173 321.397 137.183 320.702 137.213 320.1C137.293 317.931 137.74 316.057 138.565 314.465C139.386 312.88 140.539 311.653 142.025 310.787C143.507 309.926 145.312 309.49 147.434 309.49C149.527 309.49 151.317 309.926 152.804 310.787C154.285 311.653 155.439 312.88 156.264 314.465C157.084 316.057 157.547 317.931 157.656 320.1C157.681 320.702 157.696 321.397 157.696 322.199C157.696 323.001 157.681 323.72 157.656 324.344C157.547 326.484 157.104 328.353 156.324 329.956C155.538 331.559 154.405 332.797 152.923 333.658C151.437 334.519 149.607 334.955 147.434 334.955ZM147.434 329.72C148.732 329.72 149.706 329.249 150.358 328.306C151.004 327.363 151.372 325.966 151.451 324.109C151.476 323.637 151.491 323.012 151.491 322.222C151.491 321.438 151.476 320.808 151.451 320.336C151.372 318.515 151.004 317.124 150.358 316.163C149.706 315.208 148.732 314.725 147.434 314.725C146.132 314.725 145.153 315.208 144.491 316.163C143.825 317.124 143.457 318.515 143.378 320.336C143.348 320.808 143.338 321.438 143.338 322.222C143.338 323.012 143.348 323.637 143.378 324.109C143.457 325.966 143.825 327.363 144.491 328.306C145.153 329.249 146.132 329.72 147.434 329.72Z" fill="white"/>
<path d="M175.671 334.955C173.469 334.955 171.624 334.519 170.143 333.658C168.656 332.797 167.523 331.559 166.742 329.956C165.957 328.353 165.529 326.484 165.45 324.344C165.42 323.72 165.41 323.001 165.41 322.199C165.41 321.397 165.42 320.702 165.45 320.1C165.529 317.931 165.977 316.057 166.802 314.465C167.622 312.88 168.776 311.653 170.262 310.787C171.744 309.926 173.548 309.49 175.671 309.49C177.764 309.49 179.554 309.926 181.04 310.787C182.522 311.653 183.675 312.88 184.501 314.465C185.321 316.057 185.783 317.931 185.893 320.1C185.917 320.702 185.932 321.397 185.932 322.199C185.932 323.001 185.917 323.72 185.893 324.344C185.783 326.484 185.341 328.353 184.56 329.956C183.775 331.559 182.641 332.797 181.16 333.658C179.673 334.519 177.844 334.955 175.671 334.955ZM175.671 329.72C176.969 329.72 177.943 329.249 178.594 328.306C179.241 327.363 179.609 325.966 179.688 324.109C179.713 323.637 179.728 323.012 179.728 322.222C179.728 321.438 179.713 320.808 179.688 320.336C179.609 318.515 179.241 317.124 178.594 316.163C177.943 315.208 176.969 314.725 175.671 314.725C174.369 314.725 173.389 315.208 172.728 316.163C172.062 317.124 171.694 318.515 171.614 320.336C171.585 320.808 171.575 321.438 171.575 322.222C171.575 323.012 171.585 323.637 171.614 324.109C171.694 325.966 172.062 327.363 172.728 328.306C173.389 329.249 174.369 329.72 175.671 329.72Z" fill="white"/>
<path d="M195.397 334.484C195.128 334.484 194.899 334.377 194.701 334.153C194.502 333.935 194.402 333.652 194.402 333.305V311.141C194.402 310.799 194.502 310.516 194.701 310.292C194.899 310.074 195.128 309.962 195.397 309.962H199.095C199.384 309.962 199.622 310.074 199.811 310.292C199.995 310.516 200.09 310.799 200.09 311.141V312.744C200.647 311.866 201.392 311.111 202.337 310.481C203.276 309.856 204.395 309.526 205.698 309.49C208.745 309.432 210.853 310.811 212.021 313.64C212.628 312.414 213.503 311.418 214.646 310.646C215.785 309.88 217.043 309.49 218.425 309.49C219.802 309.49 221.05 309.862 222.163 310.599C223.277 311.341 224.162 312.473 224.828 313.994C225.489 315.521 225.822 317.478 225.822 319.865V333.305C225.822 333.652 225.723 333.935 225.524 334.153C225.325 334.377 225.091 334.484 224.828 334.484H220.891C220.597 334.484 220.359 334.377 220.175 334.153C219.986 333.935 219.896 333.652 219.896 333.305V320.242C219.896 318.957 219.742 317.949 219.439 317.224C219.131 316.505 218.723 315.975 218.206 315.644C217.689 315.314 217.112 315.149 216.476 315.149C215.919 315.149 215.382 315.314 214.865 315.644C214.348 315.975 213.92 316.505 213.592 317.224C213.259 317.949 213.095 318.957 213.095 320.242V333.305C213.095 333.652 213.001 333.935 212.817 334.153C212.628 334.377 212.404 334.484 212.141 334.484H208.203C207.91 334.484 207.671 334.377 207.487 334.153C207.298 333.935 207.209 333.652 207.209 333.305V320.242C207.209 318.957 207.05 317.949 206.732 317.224C206.413 316.505 205.996 315.975 205.479 315.644C204.962 315.314 204.395 315.149 203.789 315.149C203.232 315.149 202.695 315.314 202.178 315.644C201.661 315.975 201.233 316.505 200.905 317.224C200.572 317.949 200.408 318.939 200.408 320.195V333.305C200.408 333.652 200.313 333.935 200.129 334.153C199.941 334.377 199.702 334.484 199.414 334.484H195.397Z" fill="white"/>
<path d="M235.882 334.485C235.614 334.485 235.385 334.379 235.186 334.155C234.987 333.936 234.888 333.654 234.888 333.306V311.142C234.888 310.8 234.987 310.517 235.186 310.293C235.385 310.075 235.614 309.963 235.882 309.963H239.899C240.163 309.963 240.386 310.075 240.575 310.293C240.759 310.517 240.854 310.8 240.854 311.142V333.306C240.854 333.654 240.759 333.936 240.575 334.155C240.386 334.379 240.163 334.485 239.899 334.485H235.882ZM235.763 306.191C235.494 306.191 235.271 306.085 235.087 305.861C234.898 305.643 234.808 305.36 234.808 305.012V301.192C234.808 300.88 234.898 300.603 235.087 300.367C235.271 300.131 235.494 300.013 235.763 300.013H239.979C240.242 300.013 240.476 300.131 240.675 300.367C240.873 300.603 240.973 300.88 240.973 301.192V305.012C240.973 305.36 240.873 305.643 240.675 305.861C240.476 306.085 240.242 306.191 239.979 306.191H235.763Z" fill="white"/>
<path d="M259.427 334.955C256.374 334.955 253.958 333.953 252.168 331.937C250.378 329.927 249.429 327.003 249.325 323.166C249.325 322.918 249.325 322.576 249.325 322.152C249.325 321.727 249.325 321.409 249.325 321.185C249.429 318.733 249.891 316.634 250.717 314.89C251.537 313.145 252.69 311.813 254.177 310.881C255.658 309.956 257.398 309.49 259.387 309.49C261.639 309.49 263.508 310.032 264.995 311.117C266.476 312.202 267.6 313.681 268.355 315.55C269.111 317.424 269.489 319.57 269.489 321.987V323.071C269.489 323.39 269.395 323.661 269.211 323.897C269.022 324.132 268.783 324.25 268.495 324.25H255.529C255.529 324.25 255.529 324.291 255.529 324.368C255.529 324.451 255.529 324.521 255.529 324.58C255.554 325.588 255.713 326.508 256.006 327.339C256.295 328.176 256.727 328.842 257.299 329.343C257.866 329.85 258.562 330.098 259.387 330.098C260.023 330.098 260.55 329.98 260.978 329.744C261.4 329.508 261.753 329.243 262.032 328.942C262.31 328.648 262.514 328.388 262.648 328.164C262.887 327.822 263.076 327.61 263.225 327.528C263.369 327.451 263.588 327.41 263.881 327.41H268.097C268.336 327.41 268.539 327.504 268.713 327.693C268.882 327.881 268.957 328.117 268.932 328.4C268.902 328.936 268.684 329.573 268.276 330.31C267.863 331.053 267.262 331.772 266.466 332.479C265.671 333.186 264.682 333.776 263.503 334.247C262.32 334.719 260.963 334.955 259.427 334.955ZM255.529 319.912H263.285V319.77C263.285 318.674 263.13 317.707 262.827 316.87C262.519 316.039 262.076 315.385 261.495 314.913C260.908 314.442 260.207 314.206 259.387 314.206C258.562 314.206 257.866 314.442 257.299 314.913C256.727 315.385 256.29 316.039 255.986 316.87C255.678 317.707 255.529 318.674 255.529 319.77V319.912Z" fill="white"/>
<path d="M225.392 104.61C225.415 104.581 225.437 104.551 225.46 104.523C225.388 104.602 225.348 104.647 225.392 104.61Z" fill="#ED8F79"/>
<path d="M247.849 124.883C246.171 120.663 244.286 116.542 242.203 112.537C238.92 106.782 234.962 100.178 230.775 100.44C229.95 100.481 229.144 100.726 228.421 101.156C227.697 101.586 227.074 102.189 226.601 102.92C226.197 103.429 225.83 103.983 225.46 104.523C225.527 104.439 225.621 104.323 225.719 104.197C225.283 104.806 224.864 105.459 224.478 106.094C222.017 110.16 219.767 114.375 217.193 118.362C213.818 123.774 206.945 133.516 206.294 134.416C200.385 142.868 193.945 151.111 189.938 160.862C193.873 155.481 198.522 150.835 203.246 146.268C200.289 150.517 197.305 154.743 194.346 158.989C196.908 156.864 199.431 154.684 201.913 152.449C209.855 145.639 216.87 137.73 224.203 130.197C226.812 127.566 231.843 122.367 233.01 121.522C233.165 121.476 233.322 121.439 233.479 121.405C233.78 121.38 234.081 121.375 234.382 121.387C234.391 121.397 234.398 121.409 234.406 121.419C235.839 123.665 237.084 126.04 238.432 128.344C239.668 130.497 241.2 133.033 243.844 132.923C247.791 132.952 249.739 128.159 247.849 124.883Z" fill="#ED8F79"/>
<path d="M215.335 192.468C213.802 193.101 212.413 194.08 210.931 194.837C209.191 195.784 208.754 195.845 205.93 197.157C205.435 197.448 204.972 197.799 204.55 198.203C202.516 200.212 203.839 203.325 203.778 205.887C203.801 206.618 203.805 207.348 203.802 208.078C203.449 208.835 203.103 209.595 202.747 210.35C201.97 212.101 200.812 213.785 200.741 215.784C200.996 220.48 204.598 220.877 208.14 220.686C211.394 220.56 214.846 220.641 217.863 219.162C220.363 217.787 220.873 214.721 220.881 211.955C221.034 209.252 221.214 206.547 221.232 203.838C221.17 199.962 221.269 191.506 215.335 192.468Z" fill="#ED8F79"/>
<path d="M268.014 157.438C266.317 150.745 263.325 144.531 260.635 138.257C257.128 130.757 253.613 123.208 249.192 116.277C246.497 111.904 243.381 107.852 239.895 104.189C236.805 101.061 233.394 98.3396 230.043 95.546C230.211 95.1921 230.379 94.838 230.546 94.4836C230.323 94.7921 230.101 95.1004 229.878 95.4085C229.212 94.8525 228.549 94.2923 227.89 93.7279C228.436 94.4219 229.003 95.1227 229.576 95.8255C229.492 95.9423 229.408 96.0592 229.323 96.1761C223.883 103.81 218.084 111.138 211.948 118.13C204.133 127.693 196.209 137.149 188.175 146.497C183.762 151.988 178.539 156.863 175.135 163.201C174.827 163.85 174.545 164.508 174.276 165.171C162.884 165.616 151.483 164.917 140.11 164.119C135.994 163.76 131.92 162.955 127.799 162.659C123.612 162.416 119.417 162.635 115.227 162.747C115.284 162.4 115.342 162.053 115.403 161.704C115.418 161.659 115.426 161.636 115.438 161.6C115.456 161.564 115.476 161.53 115.495 161.495C115.596 161.382 115.752 161.207 115.953 161.001C116.392 160.468 119.126 158.525 121.654 157.093C134.729 149.569 147.901 142.25 161.171 135.136C160.879 139.423 160.558 143.708 160.148 147.984C161.454 143.307 162.599 138.58 163.622 133.822C165.072 133.047 166.517 132.262 167.969 131.491C171.2 129.798 174.422 128.083 177.635 126.347C176.766 131.411 176.024 136.501 175.366 141.605C175.207 142.709 175.055 143.814 174.91 144.92C175.2 144.05 175.49 143.18 175.779 142.31C177.68 136.286 179.588 130.265 181.505 124.246C192.454 118.268 203.288 112.04 213.932 105.457C218.93 102.279 223.951 99.0962 228.564 95.285C225.551 96.8501 221.595 98.8091 219.117 99.9019C207.755 105.058 196.192 109.708 184.96 115.192C184.728 115.306 184.497 115.425 184.264 115.539C184.774 113.928 185.284 112.317 185.795 110.706C187.049 105.757 190.907 95.9848 187.419 91.6894C185.745 90.0418 183.276 90.6583 181.203 90.3263C177.921 90.0419 176.98 89.7187 174.176 89.3969C171.98 89.0965 169.75 89.276 167.619 89.9247C165.062 90.64 164.036 92.6012 163.77 95.3107C162.715 101.924 162.55 108.63 162.355 115.322C162.132 119.276 161.906 123.23 161.678 127.184C151.844 132.44 142.083 137.856 132.349 143.321C128.66 145.418 125.014 147.604 121.311 149.673C117.895 151.62 114.335 153.465 111.439 156.271C108.418 159.235 108.824 164.11 108.087 168.111C106.744 178.969 105.84 189.867 105.266 200.802C104.824 207.252 103.953 213.673 103.939 220.15C104.602 241.378 105.399 262.604 105.803 283.842C108.763 263.167 110.126 242.303 110.515 221.398C110.564 215.572 111.181 209.783 111.654 203.987C112.085 198.474 112.217 192.943 112.541 187.423C113.375 177.992 113.927 170.64 115.177 163.041C119.283 163.734 123.413 164.274 127.481 165.199C131.501 166.177 135.429 167.556 139.458 168.504C151.129 170.85 160.509 172.711 171.88 172.941C170.433 179.235 169.843 185.82 168.746 192.159C167.15 203.075 165.271 213.968 164.9 225.037C164.304 243.369 163.486 261.692 162.588 280.009C165.217 266.75 167.525 253.41 169.188 239.967C170.408 230.519 171.063 221 172.176 211.538C172.621 208.204 174.569 194.86 175.556 188.151C176.087 184.064 177.179 177.443 178.237 172.899C178.457 172.892 178.67 172.89 178.892 172.882C188.181 173.317 197.064 170.179 206.106 168.394C219.636 165.867 233.233 163.808 246.713 160.972C251.286 160.196 255.848 159.357 260.392 158.411C260.484 158.732 260.578 159.055 260.662 159.368C262.65 168.823 263.118 175.993 263.701 189.436C264.148 200.913 263.685 212.402 263.922 223.884C263.974 240.418 264.677 256.929 266.031 273.414C266.099 274.265 266.169 275.115 266.24 275.966C267.613 260.175 268.813 244.367 269.971 228.557C270.763 216.664 271.125 204.748 271.056 192.809C270.989 180.971 270.513 169.004 268.014 157.438ZM166.904 115.943C168.078 106.66 168.178 104.775 169.712 95.7217C169.897 95.6668 170.095 95.6125 170.27 95.5766C172.606 95.2811 174.955 95.6464 177.272 95.9767C179.289 96.2645 181.32 96.4144 183.353 96.4254C183.403 99.6505 181.658 106.264 180.575 111.672C180.08 113.799 179.622 115.934 179.187 118.074C174.547 120.414 169.929 122.801 165.331 125.235C165.898 122.146 166.422 119.048 166.904 115.943ZM238.452 158.035C226.918 158.811 215.321 158.944 203.874 160.809C198.131 161.733 192.514 163.388 186.789 164.419C183.871 164.614 182.957 164.608 181.585 164.705C183.986 160.908 186.893 158.335 190.621 153.758C197.113 146.335 203.218 138.529 208.908 130.375C216.369 119.311 224.119 108.382 229.788 96.0826C233.03 100.043 236.547 104.078 238.873 107.604C245.574 117.629 250.196 131.08 252.394 136.597C253.608 140.195 257.872 149.85 260.21 157.767C252.957 157.725 245.696 157.581 238.452 158.035Z" fill="white"/>
<path d="M218.269 239.283C212.713 240.174 204.62 242.665 201.687 248.248C200.521 250.814 200.455 253.758 200.186 256.553C199.886 260.472 199.898 264.413 200.223 268.33C200.24 270.616 203.062 271.425 203.928 269.25C204.103 268.535 204.15 267.791 204.066 267.057C204.219 265.141 204.472 261.831 204.758 259.762C204.803 259.423 204.844 259.063 204.856 258.942C204.964 258.076 204.892 258.502 205.284 255.749C205.698 253.122 206.007 251.333 206.589 250.602C207.121 249.424 212.025 246.5 215.547 245.344C216.526 245.006 217.506 244.647 218.506 244.383C219.802 246.809 220.57 255.185 221.187 261.003C221.538 264.401 221.892 267.798 222.297 271.19C222.405 270.171 222.517 269.151 222.616 268.131C223.157 262.271 223.521 256.384 223.567 250.494C223.358 246.922 223.611 239.045 218.269 239.283Z" fill="white"/>
<path d="M227.439 188.567C226.383 179.221 221.021 182.167 215.187 184.519C213.005 185.507 210.753 186.397 208.74 187.758C207.686 188.565 206.565 189.445 206.152 190.831C205.693 192.386 205.767 194.065 205.501 195.665C205.111 198.775 204.163 205.492 203.707 209.827C205.302 204.579 206.944 199.344 208.306 194.019C208.416 193.527 208.67 192.668 208.762 192.384C208.953 192.038 208.923 192.005 209.14 191.797C210.968 190.586 211.03 190.706 212.906 189.99C216.024 188.89 219.181 187.902 222.378 187.105C223.189 189.112 223.125 193.599 223.033 198.128C222.953 201.541 222.935 204.96 222.731 208.367C222.732 208.823 222.621 209.271 222.408 209.665C221.657 210.464 219.315 210.519 216.921 210.761C214.669 211.013 212.408 211.143 210.144 211.15C211.191 211.458 212.248 211.732 213.314 211.95C215.604 212.354 217.914 212.663 220.23 212.831C222.104 213.004 224.335 212.583 225.241 210.579C226.476 207.001 226.563 203.054 227.095 199.299C227.385 195.74 227.897 192.131 227.439 188.567Z" fill="white"/>
</g>
<defs>
<clipPath id="clip0_260_76">
<rect width="525" height="567" fill="white" transform="translate(-75)"/>
</clipPath>
</defs>
</svg>
