<svg xmlns="http://www.w3.org/2000/svg" width="1000" height="1000" viewBox="0 0 1000 1000" xml:space="preserve">
	<rect width="100%" height="100%" fill="#3f8485" />
	<rect style="stroke:none;stroke-width:1;stroke-dasharray:none;stroke-linecap:butt;stroke-dashoffset:0;stroke-linejoin:miter;stroke-miterlimit:4;is-custom-font:none;font-file-url:none;fill:#fff;fill-rule:nonzero;opacity:1" x="-225" y="-225" rx="0" ry="0" width="450" height="450" transform="matrix(2.4242 0 0 2.6614 499.987 550.162)" />
	<rect style="stroke:none;stroke-width:1;stroke-dasharray:none;stroke-linecap:butt;stroke-dashoffset:0;stroke-linejoin:miter;stroke-miterlimit:4;is-custom-font:none;font-file-url:none;fill:#3f8485;fill-rule:nonzero;opacity:1" x="-225" y="-225" rx="0" ry="0" width="450" height="450" transform="matrix(2.4242 0 0 2.6614 499.987 550.162)" />
	<rect style="stroke:none;stroke-width:1;stroke-dasharray:none;stroke-linecap:butt;stroke-dashoffset:0;stroke-linejoin:miter;stroke-miterlimit:4;is-custom-font:none;font-file-url:none;fill:#fff;fill-rule:nonzero;opacity:1" x="-225" y="-225" rx="0" ry="0" width="450" height="450" transform="matrix(2.4242 0 0 2.6614 499.987 550.162)" />
	<rect style="stroke:none;stroke-width:1;stroke-dasharray:none;stroke-linecap:butt;stroke-dashoffset:0;stroke-linejoin:miter;stroke-miterlimit:4;is-custom-font:none;font-file-url:none;fill:#3f8485;fill-rule:nonzero;opacity:1" x="-225" y="-225" rx="0" ry="0" width="450" height="450" transform="matrix(2.4242 0 0 2.6614 499.987 550.162)" />
	<g transform="matrix(2.4242 0 0 2.6614 450.676 622.17)" clip-path="url(#a)">
		<clipPath id="a">
			<path transform="translate(-167.154 -214.55)" d="M151.027 206.676h32.25v15.75h-32.25Zm0 0" stroke-linecap="round" />
		</clipPath>
		<path style="stroke:none;stroke-width:1;stroke-dasharray:none;stroke-linecap:butt;stroke-dashoffset:0;stroke-linejoin:miter;stroke-miterlimit:4;is-custom-font:none;font-file-url:none;fill:#ed8f79;fill-rule:nonzero;opacity:1" transform="translate(-167.154 -214.55)" d="M178.469 206.676c0 6.094-5.063 11.043-11.301 11.043s-11.305-4.95-11.305-11.043h-4.82c0 8.699 7.219 15.75 16.125 15.75 8.906 0 16.098-7.051 16.098-15.75Zm0 0" />
	</g>
	<path style="stroke:none;stroke-width:1;stroke-dasharray:none;stroke-linecap:butt;stroke-dashoffset:0;stroke-linejoin:miter;stroke-miterlimit:4;is-custom-font:none;font-file-url:none;fill:#fff;fill-rule:nonzero;opacity:1" transform="matrix(2.4242 0 0 2.6614 340.962 589.92)" d="M3.063 0a.707.707 0 0 1-.532-.219.747.747 0 0 1-.219-.562v-20.313a.76.76 0 0 1 .22-.562.722.722 0 0 1 .53-.219h8.313c2.602 0 4.656.602 6.156 1.797 1.5 1.2 2.25 2.922 2.25 5.172 0 1.523-.367 2.793-1.093 3.812-.731 1.024-1.711 1.781-2.938 2.281L20.188-1a.787.787 0 0 1 .093.344.63.63 0 0 1-.203.453.629.629 0 0 1-.453.203h-3.5c-.375 0-.656-.098-.844-.297a2.256 2.256 0 0 1-.406-.547L11.062-8h-3.78v7.219a.76.76 0 0 1-.22.562A.76.76 0 0 1 6.5 0ZM7.28-11.969h4.032c1.124 0 1.96-.258 2.515-.781.55-.52.828-1.25.828-2.188 0-.937-.273-1.675-.812-2.218-.543-.54-1.387-.813-2.531-.813H7.28Zm0 0" />
	<path style="stroke:none;stroke-width:1;stroke-dasharray:none;stroke-linecap:butt;stroke-dashoffset:0;stroke-linejoin:miter;stroke-miterlimit:4;is-custom-font:none;font-file-url:none;fill:#fff;fill-rule:nonzero;opacity:1" transform="matrix(2.4242 0 0 2.6614 400.883 589.918)" d="M9.406.313c-1.73 0-3.18-.29-4.344-.86-1.166-.57-2.057-1.39-2.67-2.453-.618-1.063-.954-2.3-1.016-3.719a26.28 26.28 0 0 1-.031-1.422c0-.53.008-.992.031-1.39.063-1.438.414-2.68 1.063-3.735.644-1.05 1.55-1.863 2.718-2.437 1.164-.57 2.582-.86 4.25-.86 1.645 0 3.051.29 4.219.86 1.164.574 2.07 1.387 2.719 2.437.644 1.055 1.008 2.297 1.093 3.735a30.395 30.395 0 0 1 0 2.813c-.085 1.417-.433 2.655-1.046 3.718-.618 1.063-1.508 1.883-2.672 2.453-1.168.57-2.606.86-4.313.86Zm0-3.47c1.02 0 1.785-.312 2.297-.937.508-.625.797-1.55.86-2.781.019-.313.03-.727.03-1.25 0-.52-.011-.938-.03-1.25-.063-1.207-.352-2.129-.86-2.766-.512-.632-1.277-.953-2.297-.953-1.023 0-1.793.32-2.312.953-.524.637-.813 1.559-.875 2.766-.024.313-.032.73-.032 1.25 0 .523.008.938.032 1.25.062 1.23.351 2.156.875 2.781.52.625 1.289.938 2.312.938Zm0 0" />
	<path style="stroke:none;stroke-width:1;stroke-dasharray:none;stroke-linecap:butt;stroke-dashoffset:0;stroke-linejoin:miter;stroke-miterlimit:4;is-custom-font:none;font-file-url:none;fill:#fff;fill-rule:nonzero;opacity:1" transform="matrix(2.4242 0 0 2.6614 454.667 589.918)" d="M9.406.313c-1.73 0-3.18-.29-4.344-.86-1.166-.57-2.057-1.39-2.67-2.453-.618-1.063-.954-2.3-1.016-3.719a26.28 26.28 0 0 1-.031-1.422c0-.53.008-.992.031-1.39.063-1.438.414-2.68 1.063-3.735.644-1.05 1.55-1.863 2.718-2.437 1.164-.57 2.582-.86 4.25-.86 1.645 0 3.051.29 4.219.86 1.164.574 2.07 1.387 2.719 2.437.644 1.055 1.008 2.297 1.093 3.735a30.395 30.395 0 0 1 0 2.813c-.085 1.417-.433 2.655-1.046 3.718-.618 1.063-1.508 1.883-2.672 2.453-1.168.57-2.606.86-4.313.86Zm0-3.47c1.02 0 1.785-.312 2.297-.937.508-.625.797-1.55.86-2.781.019-.313.03-.727.03-1.25 0-.52-.011-.938-.03-1.25-.063-1.207-.352-2.129-.86-2.766-.512-.632-1.277-.953-2.297-.953-1.023 0-1.793.32-2.312.953-.524.637-.813 1.559-.875 2.766-.024.313-.032.73-.032 1.25 0 .523.008.938.032 1.25.062 1.23.351 2.156.875 2.781.52.625 1.289.938 2.312.938Zm0 0" />
	<path style="stroke:none;stroke-width:1;stroke-dasharray:none;stroke-linecap:butt;stroke-dashoffset:0;stroke-linejoin:miter;stroke-miterlimit:4;is-custom-font:none;font-file-url:none;fill:#fff;fill-rule:nonzero;opacity:1" transform="matrix(2.4242 0 0 2.6614 508.451 589.92)" d="M2.719 0a.76.76 0 0 1-.547-.219.731.731 0 0 1-.235-.562V-15.47a.777.777 0 0 1 .781-.781h2.907c.227 0 .414.074.563.219a.775.775 0 0 1 .218.562v1.063c.438-.582 1.024-1.082 1.766-1.5.738-.414 1.617-.633 2.64-.656 2.395-.04 4.051.875 4.97 2.75.476-.813 1.163-1.473 2.062-1.985a5.907 5.907 0 0 1 2.968-.765c1.083 0 2.063.246 2.938.734.875.492 1.57 1.242 2.094 2.25.52 1.012.781 2.308.781 3.89V-.78a.73.73 0 0 1-.234.562.767.767 0 0 1-.547.219H22.75a.747.747 0 0 1-.781-.781v-8.656c0-.852-.121-1.52-.36-2-.242-.477-.562-.829-.968-1.047a2.82 2.82 0 0 0-1.36-.329c-.437 0-.86.11-1.265.329-.407.218-.743.57-1 1.046-.262.481-.391 1.149-.391 2V-.78a.76.76 0 0 1-.219.562.72.72 0 0 1-.531.219h-3.094A.747.747 0 0 1 12-.781v-8.656c0-.852-.125-1.52-.375-2-.25-.477-.578-.829-.984-1.047a2.764 2.764 0 0 0-1.329-.329c-.437 0-.859.11-1.265.329-.406.218-.742.57-1 1.046-.262.481-.39 1.137-.39 1.97v8.687a.76.76 0 0 1-.22.562.76.76 0 0 1-.562.219Zm0 0" />
	<path style="stroke:none;stroke-width:1;stroke-dasharray:none;stroke-linecap:butt;stroke-dashoffset:0;stroke-linejoin:miter;stroke-miterlimit:4;is-custom-font:none;font-file-url:none;fill:#fff;fill-rule:nonzero;opacity:1" transform="matrix(2.4242 0 0 2.6614 585.566 589.918)" d="M2.719 0a.76.76 0 0 1-.547-.219.731.731 0 0 1-.235-.562V-15.47a.777.777 0 0 1 .781-.781h3.157c.207 0 .383.074.531.219a.775.775 0 0 1 .219.562V-.78a.76.76 0 0 1-.219.562.72.72 0 0 1-.531.218Zm-.094-18.75a.707.707 0 0 1-.531-.219.747.747 0 0 1-.219-.562v-2.532c0-.207.07-.39.219-.546a.694.694 0 0 1 .531-.235h3.313c.207 0 .39.078.546.235a.75.75 0 0 1 .235.547v2.53a.729.729 0 0 1-.235.563.767.767 0 0 1-.546.219Zm0 0" />
	<path style="stroke:none;stroke-width:1;stroke-dasharray:none;stroke-linecap:butt;stroke-dashoffset:0;stroke-linejoin:miter;stroke-miterlimit:4;is-custom-font:none;font-file-url:none;fill:#fff;fill-rule:nonzero;opacity:1" transform="matrix(2.4242 0 0 2.6614 614.655 589.918)" d="M9.219.313c-2.399 0-4.297-.665-5.703-2C2.109-3.02 1.363-4.957 1.28-7.5v-1.312c.082-1.626.446-3.016 1.094-4.172a6.55 6.55 0 0 1 2.719-2.657c1.164-.613 2.531-.921 4.093-.921 1.77 0 3.239.359 4.407 1.078a6.886 6.886 0 0 1 2.64 2.937c.594 1.242.891 2.664.891 4.266v.719a.777.777 0 0 1-.781.78H6.156v.22c.02.668.145 1.278.375 1.829.227.554.567.996 1.016 1.328.445.336.992.5 1.64.5.5 0 .915-.078 1.25-.235.333-.156.61-.332.829-.53.218-.196.379-.368.484-.517.188-.226.336-.367.453-.421.113-.051.285-.079.516-.079h3.312c.188 0 .348.063.485.188a.536.536 0 0 1 .172.469c-.024.355-.196.777-.516 1.265-.324.493-.797.97-1.422 1.438-.625.469-1.402.86-2.328 1.172-.93.312-1.996.469-3.203.469Zm-3.063-9.97h6.094v-.093c0-.727-.121-1.367-.36-1.922-.242-.55-.59-.984-1.046-1.297-.461-.312-1.012-.469-1.656-.469-.649 0-1.196.157-1.641.47-.45.312-.793.745-1.031 1.296-.243.555-.36 1.195-.36 1.922Zm0 0" />
	<path style="stroke:none;stroke-width:1;stroke-dasharray:none;stroke-linecap:butt;stroke-dashoffset:0;stroke-linejoin:miter;stroke-miterlimit:4;is-custom-font:none;font-file-url:none;fill:#ed8f79;fill-rule:nonzero;opacity:1" transform="translate(-100 -120.98)" d="m672.176 305.5.13-.176c-.14.16-.214.25-.13.175Z" />
	<path style="stroke:none;stroke-width:1;stroke-dasharray:none;stroke-linecap:butt;stroke-dashoffset:0;stroke-linejoin:miter;stroke-miterlimit:4;is-custom-font:none;font-file-url:none;fill:#ed8f79;fill-rule:nonzero;opacity:1" transform="translate(-100 -120.98)" d="M714.951 341.233a228.39 228.39 0 0 0-10.755-21.774c-6.254-10.15-13.793-21.797-21.768-21.335a10.279 10.279 0 0 0-7.95 4.374c-.769.896-1.468 1.873-2.172 2.826.126-.147.305-.352.493-.575a53.429 53.429 0 0 0-2.365 3.346c-4.687 7.17-8.973 14.604-13.875 21.637-6.43 9.544-19.521 26.726-20.76 28.313-11.256 14.907-23.522 29.445-31.155 46.643 7.495-9.49 16.35-17.685 25.348-25.739-5.631 7.493-11.316 14.946-16.952 22.434q7.321-5.62 14.414-11.533c15.126-12.01 28.488-25.96 42.457-39.246 4.97-4.64 14.551-13.81 16.775-15.299.294-.081.593-.147.894-.206a14.802 14.802 0 0 1 1.72-.031c.016.017.03.037.046.054 2.728 3.962 5.1 8.15 7.668 12.215 2.353 3.797 5.272 8.27 10.308 8.076 7.517.051 11.228-8.402 7.63-14.18ZM653.02 460.43c-2.921 1.115-5.567 2.842-8.39 4.178-3.315 1.67-4.146 1.777-9.526 4.091a14.235 14.235 0 0 0-2.628 1.845c-3.874 3.544-1.355 9.034-1.47 13.553.043 1.288.05 2.576.045 3.864-.673 1.334-1.332 2.675-2.01 4.006-1.478 3.088-3.685 6.06-3.82 9.584.485 8.283 7.347 8.983 14.093 8.646 6.199-.222 12.774-.08 18.52-2.688 4.761-2.426 5.734-7.833 5.748-12.71.292-4.768.634-9.538.669-14.316-.118-6.836.07-21.75-11.231-20.052Z" />
	<path style="stroke:none;stroke-width:1;stroke-dasharray:none;stroke-linecap:butt;stroke-dashoffset:0;stroke-linejoin:miter;stroke-miterlimit:4;is-custom-font:none;font-file-url:none;fill:#fff;fill-rule:nonzero;opacity:1" transform="translate(-100 -120.98)" d="M753.36 398.65c-3.232-11.806-8.931-22.764-14.054-33.83-6.68-13.227-13.376-26.542-21.798-38.765a131.013 131.013 0 0 0-17.707-21.32c-5.887-5.517-12.384-10.316-18.767-15.243l.959-1.874-1.274 1.631q-1.902-1.47-3.786-2.964c1.04 1.224 2.12 2.46 3.213 3.7l-.483.618a496.217 496.217 0 0 1-33.095 38.72q-22.328 25.299-45.283 50.03c-8.404 9.683-18.353 18.281-24.838 29.46a65.256 65.256 0 0 0-1.636 3.474c-21.7.785-43.414-.449-65.077-1.855-7.841-.634-15.6-2.053-23.45-2.575-7.976-.43-15.967-.043-23.948.155.11-.612.22-1.224.336-1.839l.068-.184c.034-.063.071-.123.107-.185.193-.2.49-.508.874-.872.835-.94 6.044-4.367 10.857-6.892q37.358-19.905 75.27-38.725c-.555 7.561-1.167 15.118-1.946 22.66 2.487-8.25 4.667-16.586 6.616-24.978 2.762-1.367 5.514-2.75 8.28-4.11q9.23-4.48 18.411-9.072c-1.655 8.93-3.067 17.907-4.321 26.91q-.455 2.92-.87 5.847.83-2.301 1.657-4.604 5.43-15.937 10.906-31.858c20.855-10.543 41.492-21.528 61.765-33.138 9.52-5.605 19.084-11.219 27.871-17.94-5.74 2.76-13.274 6.215-17.994 8.142-21.642 9.094-43.667 17.294-65.06 26.966-.444.202-.884.411-1.327.613q1.457-4.262 2.917-8.524c2.388-8.73 9.736-25.963 3.094-33.539-3.19-2.906-7.894-1.819-11.842-2.404-6.25-.502-8.042-1.072-13.385-1.64a31.46 31.46 0 0 0-12.488.932c-4.87 1.261-6.826 4.72-7.331 9.499-2.01 11.663-2.325 23.49-2.696 35.293q-.638 10.46-1.29 20.921c-18.732 9.269-37.324 18.822-55.864 28.46-7.028 3.698-13.972 7.554-21.025 11.203-6.507 3.433-13.289 6.687-18.804 11.636-5.754 5.229-4.982 13.826-6.385 20.882-2.558 19.15-4.28 38.371-5.373 57.657-.843 11.375-2.501 22.7-2.528 34.123 1.263 37.439 2.78 74.874 3.552 112.331 5.637-36.463 8.232-73.26 8.975-110.13.091-10.274 1.267-20.484 2.169-30.707.82-9.723 1.072-19.478 1.688-29.213 1.59-16.633 2.642-29.6 5.022-43.003 7.82 1.223 15.688 2.175 23.435 3.807 7.659 1.724 15.14 4.157 22.814 5.83 22.232 4.136 40.098 7.419 61.757 7.823-2.757 11.101-3.88 22.716-5.97 33.896-3.04 19.251-6.619 38.462-7.325 57.984-1.137 32.332-2.693 64.648-4.405 96.954 5.009-23.385 9.404-46.913 12.573-70.622 2.323-16.662 3.57-33.452 5.69-50.139.848-5.88 4.558-29.415 6.44-41.247 1.01-7.208 3.09-18.886 5.106-26.899.419-.012.824-.016 1.246-.03 17.694.766 34.614-4.768 51.838-7.915 25.77-4.458 51.67-8.09 77.347-13.09 8.709-1.368 17.399-2.849 26.055-4.516.174.565.354 1.135.514 1.687 3.786 16.675 4.678 29.321 5.788 53.03.85 20.241-.031 40.504.42 60.755q.15 43.741 4.017 87.355.196 2.25.4 4.5c2.614-27.85 4.9-55.73 7.105-83.613q2.264-31.463 2.067-63.049c-.127-20.879-1.034-41.983-5.794-62.382Zm-192.591-73.185c2.236-16.372 2.426-19.696 5.35-35.663.352-.097.728-.193 1.061-.256 4.45-.521 8.925.123 13.339.706a91.955 91.955 0 0 0 11.583.79c.094 5.689-3.23 17.353-5.292 26.891a387.488 387.488 0 0 0-2.645 11.291q-13.255 6.19-26.391 12.63 1.62-8.173 2.995-16.39Zm136.282 74.237c-21.97 1.369-44.058 1.603-65.862 4.892-10.94 1.63-21.64 4.548-32.543 6.367-5.56.344-7.298.334-9.912.504 4.573-6.696 10.11-11.234 17.21-19.306a486.395 486.395 0 0 0 34.833-41.24c14.21-19.514 28.973-38.79 39.77-60.48 6.178 6.983 12.876 14.1 17.307 20.319 12.763 17.68 21.566 41.404 25.753 51.134 2.313 6.345 10.434 23.373 14.888 37.338-13.816-.075-27.646-.328-41.444.472Z" />
	<path style="stroke:none;stroke-width:1;stroke-dasharray:none;stroke-linecap:butt;stroke-dashoffset:0;stroke-linejoin:miter;stroke-miterlimit:4;is-custom-font:none;font-file-url:none;fill:#fff;fill-rule:nonzero;opacity:1" transform="translate(-100 -120.98)" d="M658.608 542.997c-10.582 1.57-25.998 5.964-31.585 15.812-2.22 4.524-2.347 9.716-2.859 14.645a120.918 120.918 0 0 0 .07 20.772c.032 4.032 5.408 5.459 7.057 1.623a10.211 10.211 0 0 0 .263-3.868c.292-3.38.773-9.218 1.318-12.867.086-.597.164-1.232.186-1.445.207-1.528.07-.776.817-5.632.788-4.633 1.377-7.788 2.484-9.077 1.015-2.078 10.355-7.234 17.064-9.273 1.864-.597 3.73-1.23 5.635-1.696 2.47 4.279 3.932 19.052 5.108 29.312.668 5.993 1.343 11.985 2.113 17.967.206-1.797.42-3.596.609-5.395 1.031-10.335 1.723-20.718 1.81-31.106-.397-6.3.086-20.192-10.09-19.772Zm17.467-89.447c-2.013-16.483-12.225-11.288-23.338-7.139-4.157 1.743-8.446 3.312-12.28 5.712-2.008 1.425-4.143 2.975-4.93 5.42-.873 2.743-.732 5.703-1.24 8.525-.742 5.486-2.547 17.332-3.417 24.977 3.04-9.254 6.166-18.488 8.761-27.88.208-.868.693-2.381.868-2.882.363-.611.307-.67.72-1.036 3.482-2.136 3.6-1.924 7.173-3.187 5.94-1.94 11.952-3.682 18.042-5.087 1.544 3.539 1.424 11.452 1.248 19.44-.153 6.02-.188 12.048-.576 18.058a4.5 4.5 0 0 1-.614 2.29c-1.43 1.41-5.893 1.505-10.452 1.932a129.133 129.133 0 0 1-12.909.687 78.397 78.397 0 0 0 6.039 1.41c4.362.712 8.761 1.258 13.172 1.554 3.57.305 7.82-.438 9.545-3.972 2.352-6.31 2.518-13.272 3.531-19.893.553-6.277 1.53-12.643.657-18.929Z" />
</svg>