<svg xmlns="http://www.w3.org/2000/svg" xmlns:xlink="http://www.w3.org/1999/xlink" width="500" zoomAndPan="magnify" viewBox="0 0 375 374.999991" height="500" preserveAspectRatio="xMidYMid meet" version="1.0">
    <defs>
        <g />
        <clipPath id="id1">
            <path d="M 112.5 132 L 177 132 L 177 196 L 112.5 196 Z M 112.5 132 " clip-rule="nonzero" />
        </clipPath>
        <clipPath id="id2">
            <path d="M 113 108.199219 L 262.5 108.199219 L 262.5 236.449219 L 113 236.449219 Z M 113 108.199219 " clip-rule="nonzero" />
        </clipPath>
    </defs>
    <rect x="-37.5" width="450" fill="#ffffff" y="-37.499999" height="449.999989" fill-opacity="1" />
    <rect x="-37.5" width="450" fill="#ffffff" y="-37.499999" height="449.999989" fill-opacity="1" />
    <rect x="-37.5" width="450" fill="#ffffff" y="-37.499999" height="449.999989" fill-opacity="1" />
    <rect x="-37.5" width="450" fill="#ffffff" y="-37.499999" height="449.999989" fill-opacity="1" />
    <g clip-path="url(#id1)">
        <path fill="#30816f" d="M 144.378906 132.1875 C 161.996094 132.1875 176.320312 146.273438 176.320312 163.652344 C 176.320312 181.027344 162.027344 195.082031 144.378906 195.082031 C 126.761719 195.082031 112.46875 180.996094 112.46875 163.652344 C 112.46875 146.273438 126.761719 132.1875 144.378906 132.1875 Z M 144.378906 132.1875 " fill-opacity="0.5686" fill-rule="evenodd" />
    </g>
    <g clip-path="url(#id2)">
        <path fill="#30816f" d="M 187.777344 111.210938 L 116.164062 179.460938 L 122.203125 184.625 L 186.976562 123.269531 C 187.4375 122.835938 188.148438 122.835938 188.578125 123.269531 L 253.351562 184.625 L 259.390625 179.460938 Z M 113.640625 178.660156 L 186.976562 108.75 C 187.40625 108.320312 188.117188 108.320312 188.578125 108.75 L 262.007812 178.75 C 262.4375 179.242188 262.375 179.980469 261.882812 180.382812 L 254.0625 187.085938 C 253.628906 187.457031 252.953125 187.457031 252.519531 187.054688 L 187.777344 125.730469 L 123.066406 187.054688 C 122.632812 187.484375 121.957031 187.484375 121.492188 187.117188 L 113.578125 180.351562 C 113.148438 179.890625 113.148438 179.152344 113.609375 178.722656 Z M 136.464844 184.074219 L 136.464844 234.113281 L 176.226562 234.113281 L 176.226562 191.761719 C 176.226562 191.117188 176.75 190.59375 177.398438 190.59375 L 198.25 190.59375 C 198.894531 190.59375 199.417969 191.117188 199.417969 191.761719 L 199.417969 234.113281 L 239.183594 234.113281 L 239.183594 184.074219 L 187.839844 135.355469 L 136.492188 184.074219 Z M 134.121094 235.25 L 134.121094 183.582031 C 134.121094 183.273438 134.246094 182.964844 134.492188 182.75 L 186.976562 132.925781 C 187.40625 132.496094 188.117188 132.496094 188.578125 132.925781 L 241.03125 182.6875 C 241.277344 182.902344 241.464844 183.210938 241.464844 183.582031 L 241.464844 235.25 C 241.464844 235.894531 240.9375 236.417969 240.292969 236.417969 L 198.21875 236.417969 C 197.570312 236.417969 197.046875 235.894531 197.046875 235.25 L 197.046875 192.898438 L 178.535156 192.898438 L 178.535156 235.25 C 178.535156 235.894531 178.011719 236.417969 177.367188 236.417969 L 135.292969 236.417969 C 134.644531 236.417969 134.121094 235.894531 134.121094 235.25 Z M 134.121094 235.25 " fill-opacity="1" fill-rule="nonzero" />
    </g>
    <g fill="#30816f" fill-opacity="1">
        <g transform="translate(140.279291, 264.805413)">
            <g>
                <path d="M 11.191406 -11.691406 C 11.492188 -11.691406 11.589844 -11.925781 11.589844 -12.191406 L 11.589844 -15.589844 C 11.589844 -16.421875 9.527344 -16.519531 8.992188 -16.519531 C 5.863281 -16.519531 1.664062 -15.953125 1.664062 -14.820312 L 1.664062 -0.597656 C 1.664062 -0.199219 2 0 2.265625 0 L 6.792969 0 C 7.0625 0 7.394531 -0.199219 7.394531 -0.597656 L 7.394531 -11.359375 C 7.394531 -11.359375 7.726562 -11.65625 9.359375 -11.789062 C 10.191406 -11.789062 10.589844 -11.691406 11.191406 -11.691406 Z M 11.191406 -11.691406 " />
            </g>
        </g>
    </g>
    <g fill="#30816f" fill-opacity="1">
        <g transform="translate(152.535398, 264.805413)">
            <g>
                <path d="M 8.261719 -16.519531 C 4.464844 -16.519531 1.332031 -14.753906 1.332031 -9.058594 L 1.332031 -7.195312 C 1.332031 -1.5 4.464844 0.265625 8.261719 0.265625 C 12.058594 0.265625 15.15625 -1.5 15.15625 -7.195312 L 15.15625 -9.058594 C 15.15625 -14.753906 12.058594 -16.519531 8.261719 -16.519531 Z M 9.460938 -5.828125 C 9.460938 -5.0625 8.925781 -4.464844 8.261719 -4.464844 C 7.59375 -4.464844 7.0625 -5.0625 7.0625 -5.828125 L 7.0625 -10.425781 C 7.0625 -11.191406 7.59375 -11.789062 8.261719 -11.789062 C 8.925781 -11.789062 9.460938 -11.191406 9.460938 -10.425781 Z M 9.460938 -5.828125 " />
            </g>
        </g>
    </g>
    <g fill="#30816f" fill-opacity="1">
        <g transform="translate(169.021195, 264.805413)">
            <g>
                <path d="M 8.261719 -16.519531 C 4.464844 -16.519531 1.332031 -14.753906 1.332031 -9.058594 L 1.332031 -7.195312 C 1.332031 -1.5 4.464844 0.265625 8.261719 0.265625 C 12.058594 0.265625 15.15625 -1.5 15.15625 -7.195312 L 15.15625 -9.058594 C 15.15625 -14.753906 12.058594 -16.519531 8.261719 -16.519531 Z M 9.460938 -5.828125 C 9.460938 -5.0625 8.925781 -4.464844 8.261719 -4.464844 C 7.59375 -4.464844 7.0625 -5.0625 7.0625 -5.828125 L 7.0625 -10.425781 C 7.0625 -11.191406 7.59375 -11.789062 8.261719 -11.789062 C 8.925781 -11.789062 9.460938 -11.191406 9.460938 -10.425781 Z M 9.460938 -5.828125 " />
            </g>
        </g>
    </g>
    <g fill="#30816f" fill-opacity="1">
        <g transform="translate(185.506992, 264.805413)">
            <g>
                <path d="M 9.59375 -0.597656 C 9.59375 -0.199219 9.925781 0 10.191406 0 L 13.523438 0 C 13.789062 0 14.121094 -0.199219 14.121094 -0.597656 L 14.121094 -8.058594 C 14.121094 -9.460938 14.023438 -10.660156 13.824219 -11.625 C 13.921875 -11.65625 14.421875 -11.789062 14.921875 -11.789062 C 15.65625 -11.789062 16.222656 -11.558594 16.320312 -10.457031 L 16.320312 -0.597656 C 16.320312 -0.199219 16.652344 0 16.921875 0 L 21.449219 0 C 21.714844 0 22.050781 -0.199219 22.050781 -0.597656 L 22.050781 -8.195312 C 22.050781 -15.054688 19.816406 -16.519531 15.65625 -16.519531 C 15.222656 -16.519531 13.324219 -16.320312 11.859375 -15.121094 C 10.691406 -16.121094 9.757812 -16.519531 7.828125 -16.519531 C 6.761719 -16.519531 1.664062 -16.054688 1.664062 -14.65625 L 1.664062 -0.597656 C 1.664062 -0.199219 2 0 2.265625 0 L 6.792969 0 C 7.0625 0 7.394531 -0.199219 7.394531 -0.597656 L 7.394531 -11.625 C 7.394531 -11.625 7.792969 -11.789062 8.328125 -11.789062 C 9.058594 -11.789062 9.492188 -11.558594 9.59375 -10.457031 Z M 9.59375 -0.597656 " />
            </g>
        </g>
    </g>
    <g fill="#30816f" fill-opacity="1">
        <g transform="translate(208.886846, 264.805413)">
            <g>
                <path d="M 7.394531 -15.621094 C 7.394531 -16.019531 7.0625 -16.253906 6.792969 -16.253906 L 2.296875 -16.253906 C 2 -16.253906 1.664062 -16.019531 1.664062 -15.621094 L 1.664062 -0.597656 C 1.664062 -0.199219 2 0 2.296875 0 L 6.792969 0 C 7.0625 0 7.394531 -0.199219 7.394531 -0.597656 Z M 4.429688 -17.453125 C 6.0625 -17.453125 7.328125 -17.984375 7.328125 -20.050781 C 7.328125 -22.214844 6.0625 -22.714844 4.429688 -22.714844 C 2.832031 -22.714844 1.566406 -22.214844 1.566406 -20.050781 C 1.566406 -17.984375 2.832031 -17.453125 4.429688 -17.453125 Z M 4.429688 -17.453125 " />
            </g>
        </g>
    </g>
    <g fill="#30816f" fill-opacity="1">
        <g transform="translate(217.945702, 264.805413)">
            <g>
                <path d="M 15.453125 -9.59375 C 15.453125 -11.523438 14.886719 -16.519531 8.394531 -16.519531 C 1.898438 -16.519531 1.332031 -11.523438 1.332031 -9.59375 L 1.332031 -7.394531 C 1.332031 -1.863281 4.664062 0.265625 9.027344 0.265625 C 10.957031 0.265625 12.824219 0.265625 14.390625 -0.53125 C 14.589844 -0.632812 14.722656 -0.800781 14.722656 -0.964844 C 14.722656 -1.03125 14.6875 -1.367188 14.089844 -4.53125 C 13.988281 -4.761719 13.789062 -4.828125 13.621094 -4.828125 C 12.355469 -4.628906 11.292969 -4.464844 10.027344 -4.464844 C 8.027344 -4.464844 7.195312 -4.730469 7.195312 -6.460938 L 14.820312 -6.460938 C 15.222656 -6.460938 15.453125 -6.792969 15.453125 -7.0625 Z M 7.160156 -10.359375 C 7.160156 -11.925781 8.195312 -11.992188 8.527344 -11.992188 C 8.859375 -11.992188 9.890625 -11.925781 9.890625 -10.359375 L 9.890625 -9.992188 L 7.160156 -9.992188 Z M 7.160156 -10.359375 " />
            </g>
        </g>
    </g>
</svg>